<svg width="1920" height="8800" viewBox="0 0 1920 8800" fill="none" xmlns="http://www.w3.org/2000/svg">
<g clip-path="url(#clip0_579_29)">
<g clip-path="url(#clip1_579_29)">
<path d="M160 0H0V1080H160V0Z" fill="url(#paint0_linear_579_29)"/>
<path d="M1760 0H1920V1080H1760V0Z" fill="url(#paint1_linear_579_29)"/>
<path d="M320 0H160V1080H320V0Z" fill="url(#paint2_linear_579_29)"/>
<path d="M1600 0H1760V1080H1600V0Z" fill="url(#paint3_linear_579_29)"/>
<path d="M480 0H320V1080H480V0Z" fill="url(#paint4_linear_579_29)"/>
<path d="M1440 0H1600V1080H1440V0Z" fill="url(#paint5_linear_579_29)"/>
<path d="M640 0H480V1080H640V0Z" fill="url(#paint6_linear_579_29)"/>
<path d="M1280 0H1440V1080H1280V0Z" fill="url(#paint7_linear_579_29)"/>
<path d="M800 0H640V1080H800V0Z" fill="url(#paint8_linear_579_29)"/>
<path d="M1120 0H1280V1080H1120V0Z" fill="url(#paint9_linear_579_29)"/>
<path d="M960 0H800V1080H960V0Z" fill="url(#paint10_linear_579_29)"/>
<path d="M960 0H1120V1080H960V0Z" fill="url(#paint11_linear_579_29)"/>
</g>
<g clip-path="url(#clip2_579_29)">
<path d="M160 2160H0V3240H160V2160Z" fill="url(#paint12_linear_579_29)"/>
<path d="M1760 2160H1920V3240H1760V2160Z" fill="url(#paint13_linear_579_29)"/>
<path d="M320 2160H160V3240H320V2160Z" fill="url(#paint14_linear_579_29)"/>
<path d="M1600 2160H1760V3240H1600V2160Z" fill="url(#paint15_linear_579_29)"/>
<path d="M480 2160H320V3240H480V2160Z" fill="url(#paint16_linear_579_29)"/>
<path d="M1440 2160H1600V3240H1440V2160Z" fill="url(#paint17_linear_579_29)"/>
<path d="M640 2160H480V3240H640V2160Z" fill="url(#paint18_linear_579_29)"/>
<path d="M1280 2160H1440V3240H1280V2160Z" fill="url(#paint19_linear_579_29)"/>
<path d="M800 2160H640V3240H800V2160Z" fill="url(#paint20_linear_579_29)"/>
<path d="M1120 2160H1280V3240H1120V2160Z" fill="url(#paint21_linear_579_29)"/>
<path d="M960 2160H800V3240H960V2160Z" fill="url(#paint22_linear_579_29)"/>
<path d="M960 2160H1120V3240H960V2160Z" fill="url(#paint23_linear_579_29)"/>
</g>
<g clip-path="url(#clip3_579_29)">
<path d="M160 7488H0V9072H160V7488Z" fill="url(#paint24_linear_579_29)"/>
<path d="M1760 7488H1920V9072H1760V7488Z" fill="url(#paint25_linear_579_29)"/>
<path d="M320 7488H160V9072H320V7488Z" fill="url(#paint26_linear_579_29)"/>
<path d="M1600 7488H1760V9072H1600V7488Z" fill="url(#paint27_linear_579_29)"/>
<path d="M480 7488H320V9072H480V7488Z" fill="url(#paint28_linear_579_29)"/>
<path d="M1440 7488H1600V9072H1440V7488Z" fill="url(#paint29_linear_579_29)"/>
<path d="M640 7488H480V9072H640V7488Z" fill="url(#paint30_linear_579_29)"/>
<path d="M1280 7488H1440V9072H1280V7488Z" fill="url(#paint31_linear_579_29)"/>
<path d="M800 7488H640V9072H800V7488Z" fill="url(#paint32_linear_579_29)"/>
<path d="M1120 7488H1280V9072H1120V7488Z" fill="url(#paint33_linear_579_29)"/>
<path d="M960 7488H800V9072H960V7488Z" fill="url(#paint34_linear_579_29)"/>
<path d="M960 7488H1120V9072H960V7488Z" fill="url(#paint35_linear_579_29)"/>
</g>
<g clip-path="url(#clip4_579_29)">
<path d="M160 1080H0V2160H160V1080Z" fill="url(#paint36_linear_579_29)"/>
<path d="M1760 1080H1920V2160H1760V1080Z" fill="url(#paint37_linear_579_29)"/>
<path d="M320 1080H160V2160H320V1080Z" fill="url(#paint38_linear_579_29)"/>
<path d="M1600 1080H1760V2160H1600V1080Z" fill="url(#paint39_linear_579_29)"/>
<path d="M480 1080H320V2160H480V1080Z" fill="url(#paint40_linear_579_29)"/>
<path d="M1440 1080H1600V2160H1440V1080Z" fill="url(#paint41_linear_579_29)"/>
<path d="M640 1080H480V2160H640V1080Z" fill="url(#paint42_linear_579_29)"/>
<path d="M1280 1080H1440V2160H1280V1080Z" fill="url(#paint43_linear_579_29)"/>
<path d="M800 1080H640V2160H800V1080Z" fill="url(#paint44_linear_579_29)"/>
<path d="M1120 1080H1280V2160H1120V1080Z" fill="url(#paint45_linear_579_29)"/>
<path d="M960 1080H800V2160H960V1080Z" fill="url(#paint46_linear_579_29)"/>
<path d="M960 1080H1120V2160H960V1080Z" fill="url(#paint47_linear_579_29)"/>
</g>
<g clip-path="url(#clip5_579_29)">
<path d="M160 3240H0V4320H160V3240Z" fill="url(#paint48_linear_579_29)"/>
<path d="M1760 3240H1920V4320H1760V3240Z" fill="url(#paint49_linear_579_29)"/>
<path d="M320 3240H160V4320H320V3240Z" fill="url(#paint50_linear_579_29)"/>
<path d="M1600 3240H1760V4320H1600V3240Z" fill="url(#paint51_linear_579_29)"/>
<path d="M480 3240H320V4320H480V3240Z" fill="url(#paint52_linear_579_29)"/>
<path d="M1440 3240H1600V4320H1440V3240Z" fill="url(#paint53_linear_579_29)"/>
<path d="M640 3240H480V4320H640V3240Z" fill="url(#paint54_linear_579_29)"/>
<path d="M1280 3240H1440V4320H1280V3240Z" fill="url(#paint55_linear_579_29)"/>
<path d="M800 3240H640V4320H800V3240Z" fill="url(#paint56_linear_579_29)"/>
<path d="M1120 3240H1280V4320H1120V3240Z" fill="url(#paint57_linear_579_29)"/>
<path d="M960 3240H800V4320H960V3240Z" fill="url(#paint58_linear_579_29)"/>
<path d="M960 3240H1120V4320H960V3240Z" fill="url(#paint59_linear_579_29)"/>
</g>
<g clip-path="url(#clip6_579_29)">
<path d="M160 5904H0V7488H160V5904Z" fill="url(#paint60_linear_579_29)"/>
<path d="M1760 5904H1920V7488H1760V5904Z" fill="url(#paint61_linear_579_29)"/>
<path d="M320 5904H160V7488H320V5904Z" fill="url(#paint62_linear_579_29)"/>
<path d="M1600 5904H1760V7488H1600V5904Z" fill="url(#paint63_linear_579_29)"/>
<path d="M480 5904H320V7488H480V5904Z" fill="url(#paint64_linear_579_29)"/>
<path d="M1440 5904H1600V7488H1440V5904Z" fill="url(#paint65_linear_579_29)"/>
<path d="M640 5904H480V7488H640V5904Z" fill="url(#paint66_linear_579_29)"/>
<path d="M1280 5904H1440V7488H1280V5904Z" fill="url(#paint67_linear_579_29)"/>
<path d="M800 5904H640V7488H800V5904Z" fill="url(#paint68_linear_579_29)"/>
<path d="M1120 5904H1280V7488H1120V5904Z" fill="url(#paint69_linear_579_29)"/>
<path d="M960 5904H800V7488H960V5904Z" fill="url(#paint70_linear_579_29)"/>
<path d="M960 5904H1120V7488H960V5904Z" fill="url(#paint71_linear_579_29)"/>
</g>
<g clip-path="url(#clip7_579_29)">
<path d="M160 4320H0V5904H160V4320Z" fill="url(#paint72_linear_579_29)"/>
<path d="M1760 4320H1920V5904H1760V4320Z" fill="url(#paint73_linear_579_29)"/>
<path d="M320 4320H160V5904H320V4320Z" fill="url(#paint74_linear_579_29)"/>
<path d="M1600 4320H1760V5904H1600V4320Z" fill="url(#paint75_linear_579_29)"/>
<path d="M480 4320H320V5904H480V4320Z" fill="url(#paint76_linear_579_29)"/>
<path d="M1440 4320H1600V5904H1440V4320Z" fill="url(#paint77_linear_579_29)"/>
<path d="M640 4320H480V5904H640V4320Z" fill="url(#paint78_linear_579_29)"/>
<path d="M1280 4320H1440V5904H1280V4320Z" fill="url(#paint79_linear_579_29)"/>
<path d="M800 4320H640V5904H800V4320Z" fill="url(#paint80_linear_579_29)"/>
<path d="M1120 4320H1280V5904H1120V4320Z" fill="url(#paint81_linear_579_29)"/>
<path d="M960 4320H800V5904H960V4320Z" fill="url(#paint82_linear_579_29)"/>
<path d="M960 4320H1120V5904H960V4320Z" fill="url(#paint83_linear_579_29)"/>
</g>
</g>
<defs>
<linearGradient id="paint0_linear_579_29" x1="0" y1="540" x2="160" y2="540" gradientUnits="userSpaceOnUse">
<stop stop-color="#0D1431" stop-opacity="0.6"/>
<stop offset="1" stop-color="#283E97" stop-opacity="0.3"/>
</linearGradient>
<linearGradient id="paint1_linear_579_29" x1="1920" y1="540" x2="1760" y2="540" gradientUnits="userSpaceOnUse">
<stop stop-color="#0D1431" stop-opacity="0.6"/>
<stop offset="1" stop-color="#283E97" stop-opacity="0.3"/>
</linearGradient>
<linearGradient id="paint2_linear_579_29" x1="160" y1="540" x2="320" y2="540" gradientUnits="userSpaceOnUse">
<stop stop-color="#0D1431" stop-opacity="0.6"/>
<stop offset="1" stop-color="#283E97" stop-opacity="0.3"/>
</linearGradient>
<linearGradient id="paint3_linear_579_29" x1="1760" y1="540" x2="1600" y2="540" gradientUnits="userSpaceOnUse">
<stop stop-color="#0D1431" stop-opacity="0.6"/>
<stop offset="1" stop-color="#283E97" stop-opacity="0.3"/>
</linearGradient>
<linearGradient id="paint4_linear_579_29" x1="320" y1="540" x2="480" y2="540" gradientUnits="userSpaceOnUse">
<stop stop-color="#0D1431" stop-opacity="0.6"/>
<stop offset="1" stop-color="#283E97" stop-opacity="0.3"/>
</linearGradient>
<linearGradient id="paint5_linear_579_29" x1="1600" y1="540" x2="1440" y2="540" gradientUnits="userSpaceOnUse">
<stop stop-color="#0D1431" stop-opacity="0.6"/>
<stop offset="1" stop-color="#283E97" stop-opacity="0.3"/>
</linearGradient>
<linearGradient id="paint6_linear_579_29" x1="480" y1="540" x2="640" y2="540" gradientUnits="userSpaceOnUse">
<stop stop-color="#0D1431" stop-opacity="0.6"/>
<stop offset="1" stop-color="#283E97" stop-opacity="0.3"/>
</linearGradient>
<linearGradient id="paint7_linear_579_29" x1="1440" y1="540" x2="1280" y2="540" gradientUnits="userSpaceOnUse">
<stop stop-color="#0D1431" stop-opacity="0.6"/>
<stop offset="1" stop-color="#283E97" stop-opacity="0.3"/>
</linearGradient>
<linearGradient id="paint8_linear_579_29" x1="640" y1="540" x2="800" y2="540" gradientUnits="userSpaceOnUse">
<stop stop-color="#0D1431" stop-opacity="0.6"/>
<stop offset="1" stop-color="#283E97" stop-opacity="0.3"/>
</linearGradient>
<linearGradient id="paint9_linear_579_29" x1="1280" y1="540" x2="1120" y2="540" gradientUnits="userSpaceOnUse">
<stop stop-color="#0D1431" stop-opacity="0.6"/>
<stop offset="1" stop-color="#283E97" stop-opacity="0.3"/>
</linearGradient>
<linearGradient id="paint10_linear_579_29" x1="800" y1="540" x2="960" y2="540" gradientUnits="userSpaceOnUse">
<stop stop-color="#0D1431" stop-opacity="0.6"/>
<stop offset="1" stop-color="#283E97" stop-opacity="0.3"/>
</linearGradient>
<linearGradient id="paint11_linear_579_29" x1="1120" y1="540" x2="960" y2="540" gradientUnits="userSpaceOnUse">
<stop stop-color="#0D1431" stop-opacity="0.6"/>
<stop offset="1" stop-color="#283E97" stop-opacity="0.3"/>
</linearGradient>
<linearGradient id="paint12_linear_579_29" x1="0" y1="2700" x2="160" y2="2700" gradientUnits="userSpaceOnUse">
<stop stop-color="#0D1431" stop-opacity="0.6"/>
<stop offset="1" stop-color="#283E97" stop-opacity="0.3"/>
</linearGradient>
<linearGradient id="paint13_linear_579_29" x1="1920" y1="2700" x2="1760" y2="2700" gradientUnits="userSpaceOnUse">
<stop stop-color="#0D1431" stop-opacity="0.6"/>
<stop offset="1" stop-color="#283E97" stop-opacity="0.3"/>
</linearGradient>
<linearGradient id="paint14_linear_579_29" x1="160" y1="2700" x2="320" y2="2700" gradientUnits="userSpaceOnUse">
<stop stop-color="#0D1431" stop-opacity="0.6"/>
<stop offset="1" stop-color="#283E97" stop-opacity="0.3"/>
</linearGradient>
<linearGradient id="paint15_linear_579_29" x1="1760" y1="2700" x2="1600" y2="2700" gradientUnits="userSpaceOnUse">
<stop stop-color="#0D1431" stop-opacity="0.6"/>
<stop offset="1" stop-color="#283E97" stop-opacity="0.3"/>
</linearGradient>
<linearGradient id="paint16_linear_579_29" x1="320" y1="2700" x2="480" y2="2700" gradientUnits="userSpaceOnUse">
<stop stop-color="#0D1431" stop-opacity="0.6"/>
<stop offset="1" stop-color="#283E97" stop-opacity="0.3"/>
</linearGradient>
<linearGradient id="paint17_linear_579_29" x1="1600" y1="2700" x2="1440" y2="2700" gradientUnits="userSpaceOnUse">
<stop stop-color="#0D1431" stop-opacity="0.6"/>
<stop offset="1" stop-color="#283E97" stop-opacity="0.3"/>
</linearGradient>
<linearGradient id="paint18_linear_579_29" x1="480" y1="2700" x2="640" y2="2700" gradientUnits="userSpaceOnUse">
<stop stop-color="#0D1431" stop-opacity="0.6"/>
<stop offset="1" stop-color="#283E97" stop-opacity="0.3"/>
</linearGradient>
<linearGradient id="paint19_linear_579_29" x1="1440" y1="2700" x2="1280" y2="2700" gradientUnits="userSpaceOnUse">
<stop stop-color="#0D1431" stop-opacity="0.6"/>
<stop offset="1" stop-color="#283E97" stop-opacity="0.3"/>
</linearGradient>
<linearGradient id="paint20_linear_579_29" x1="640" y1="2700" x2="800" y2="2700" gradientUnits="userSpaceOnUse">
<stop stop-color="#0D1431" stop-opacity="0.6"/>
<stop offset="1" stop-color="#283E97" stop-opacity="0.3"/>
</linearGradient>
<linearGradient id="paint21_linear_579_29" x1="1280" y1="2700" x2="1120" y2="2700" gradientUnits="userSpaceOnUse">
<stop stop-color="#0D1431" stop-opacity="0.6"/>
<stop offset="1" stop-color="#283E97" stop-opacity="0.3"/>
</linearGradient>
<linearGradient id="paint22_linear_579_29" x1="800" y1="2700" x2="960" y2="2700" gradientUnits="userSpaceOnUse">
<stop stop-color="#0D1431" stop-opacity="0.6"/>
<stop offset="1" stop-color="#283E97" stop-opacity="0.3"/>
</linearGradient>
<linearGradient id="paint23_linear_579_29" x1="1120" y1="2700" x2="960" y2="2700" gradientUnits="userSpaceOnUse">
<stop stop-color="#0D1431" stop-opacity="0.6"/>
<stop offset="1" stop-color="#283E97" stop-opacity="0.3"/>
</linearGradient>
<linearGradient id="paint24_linear_579_29" x1="0" y1="8280" x2="160" y2="8280" gradientUnits="userSpaceOnUse">
<stop stop-color="#0D1431" stop-opacity="0.6"/>
<stop offset="1" stop-color="#283E97" stop-opacity="0.3"/>
</linearGradient>
<linearGradient id="paint25_linear_579_29" x1="1920" y1="8280" x2="1760" y2="8280" gradientUnits="userSpaceOnUse">
<stop stop-color="#0D1431" stop-opacity="0.6"/>
<stop offset="1" stop-color="#283E97" stop-opacity="0.3"/>
</linearGradient>
<linearGradient id="paint26_linear_579_29" x1="160" y1="8280" x2="320" y2="8280" gradientUnits="userSpaceOnUse">
<stop stop-color="#0D1431" stop-opacity="0.6"/>
<stop offset="1" stop-color="#283E97" stop-opacity="0.3"/>
</linearGradient>
<linearGradient id="paint27_linear_579_29" x1="1760" y1="8280" x2="1600" y2="8280" gradientUnits="userSpaceOnUse">
<stop stop-color="#0D1431" stop-opacity="0.6"/>
<stop offset="1" stop-color="#283E97" stop-opacity="0.3"/>
</linearGradient>
<linearGradient id="paint28_linear_579_29" x1="320" y1="8280" x2="480" y2="8280" gradientUnits="userSpaceOnUse">
<stop stop-color="#0D1431" stop-opacity="0.6"/>
<stop offset="1" stop-color="#283E97" stop-opacity="0.3"/>
</linearGradient>
<linearGradient id="paint29_linear_579_29" x1="1600" y1="8280" x2="1440" y2="8280" gradientUnits="userSpaceOnUse">
<stop stop-color="#0D1431" stop-opacity="0.6"/>
<stop offset="1" stop-color="#283E97" stop-opacity="0.3"/>
</linearGradient>
<linearGradient id="paint30_linear_579_29" x1="480" y1="8280" x2="640" y2="8280" gradientUnits="userSpaceOnUse">
<stop stop-color="#0D1431" stop-opacity="0.6"/>
<stop offset="1" stop-color="#283E97" stop-opacity="0.3"/>
</linearGradient>
<linearGradient id="paint31_linear_579_29" x1="1440" y1="8280" x2="1280" y2="8280" gradientUnits="userSpaceOnUse">
<stop stop-color="#0D1431" stop-opacity="0.6"/>
<stop offset="1" stop-color="#283E97" stop-opacity="0.3"/>
</linearGradient>
<linearGradient id="paint32_linear_579_29" x1="640" y1="8280" x2="800" y2="8280" gradientUnits="userSpaceOnUse">
<stop stop-color="#0D1431" stop-opacity="0.6"/>
<stop offset="1" stop-color="#283E97" stop-opacity="0.3"/>
</linearGradient>
<linearGradient id="paint33_linear_579_29" x1="1280" y1="8280" x2="1120" y2="8280" gradientUnits="userSpaceOnUse">
<stop stop-color="#0D1431" stop-opacity="0.6"/>
<stop offset="1" stop-color="#283E97" stop-opacity="0.3"/>
</linearGradient>
<linearGradient id="paint34_linear_579_29" x1="800" y1="8280" x2="960" y2="8280" gradientUnits="userSpaceOnUse">
<stop stop-color="#0D1431" stop-opacity="0.6"/>
<stop offset="1" stop-color="#283E97" stop-opacity="0.3"/>
</linearGradient>
<linearGradient id="paint35_linear_579_29" x1="1120" y1="8280" x2="960" y2="8280" gradientUnits="userSpaceOnUse">
<stop stop-color="#0D1431" stop-opacity="0.6"/>
<stop offset="1" stop-color="#283E97" stop-opacity="0.3"/>
</linearGradient>
<linearGradient id="paint36_linear_579_29" x1="0" y1="1620" x2="160" y2="1620" gradientUnits="userSpaceOnUse">
<stop stop-color="#0D1431" stop-opacity="0.6"/>
<stop offset="1" stop-color="#283E97" stop-opacity="0.3"/>
</linearGradient>
<linearGradient id="paint37_linear_579_29" x1="1920" y1="1620" x2="1760" y2="1620" gradientUnits="userSpaceOnUse">
<stop stop-color="#0D1431" stop-opacity="0.6"/>
<stop offset="1" stop-color="#283E97" stop-opacity="0.3"/>
</linearGradient>
<linearGradient id="paint38_linear_579_29" x1="160" y1="1620" x2="320" y2="1620" gradientUnits="userSpaceOnUse">
<stop stop-color="#0D1431" stop-opacity="0.6"/>
<stop offset="1" stop-color="#283E97" stop-opacity="0.3"/>
</linearGradient>
<linearGradient id="paint39_linear_579_29" x1="1760" y1="1620" x2="1600" y2="1620" gradientUnits="userSpaceOnUse">
<stop stop-color="#0D1431" stop-opacity="0.6"/>
<stop offset="1" stop-color="#283E97" stop-opacity="0.3"/>
</linearGradient>
<linearGradient id="paint40_linear_579_29" x1="320" y1="1620" x2="480" y2="1620" gradientUnits="userSpaceOnUse">
<stop stop-color="#0D1431" stop-opacity="0.6"/>
<stop offset="1" stop-color="#283E97" stop-opacity="0.3"/>
</linearGradient>
<linearGradient id="paint41_linear_579_29" x1="1600" y1="1620" x2="1440" y2="1620" gradientUnits="userSpaceOnUse">
<stop stop-color="#0D1431" stop-opacity="0.6"/>
<stop offset="1" stop-color="#283E97" stop-opacity="0.3"/>
</linearGradient>
<linearGradient id="paint42_linear_579_29" x1="480" y1="1620" x2="640" y2="1620" gradientUnits="userSpaceOnUse">
<stop stop-color="#0D1431" stop-opacity="0.6"/>
<stop offset="1" stop-color="#283E97" stop-opacity="0.3"/>
</linearGradient>
<linearGradient id="paint43_linear_579_29" x1="1440" y1="1620" x2="1280" y2="1620" gradientUnits="userSpaceOnUse">
<stop stop-color="#0D1431" stop-opacity="0.6"/>
<stop offset="1" stop-color="#283E97" stop-opacity="0.3"/>
</linearGradient>
<linearGradient id="paint44_linear_579_29" x1="640" y1="1620" x2="800" y2="1620" gradientUnits="userSpaceOnUse">
<stop stop-color="#0D1431" stop-opacity="0.6"/>
<stop offset="1" stop-color="#283E97" stop-opacity="0.3"/>
</linearGradient>
<linearGradient id="paint45_linear_579_29" x1="1280" y1="1620" x2="1120" y2="1620" gradientUnits="userSpaceOnUse">
<stop stop-color="#0D1431" stop-opacity="0.6"/>
<stop offset="1" stop-color="#283E97" stop-opacity="0.3"/>
</linearGradient>
<linearGradient id="paint46_linear_579_29" x1="800" y1="1620" x2="960" y2="1620" gradientUnits="userSpaceOnUse">
<stop stop-color="#0D1431" stop-opacity="0.6"/>
<stop offset="1" stop-color="#283E97" stop-opacity="0.3"/>
</linearGradient>
<linearGradient id="paint47_linear_579_29" x1="1120" y1="1620" x2="960" y2="1620" gradientUnits="userSpaceOnUse">
<stop stop-color="#0D1431" stop-opacity="0.6"/>
<stop offset="1" stop-color="#283E97" stop-opacity="0.3"/>
</linearGradient>
<linearGradient id="paint48_linear_579_29" x1="0" y1="3780" x2="160" y2="3780" gradientUnits="userSpaceOnUse">
<stop stop-color="#0D1431" stop-opacity="0.6"/>
<stop offset="1" stop-color="#283E97" stop-opacity="0.3"/>
</linearGradient>
<linearGradient id="paint49_linear_579_29" x1="1920" y1="3780" x2="1760" y2="3780" gradientUnits="userSpaceOnUse">
<stop stop-color="#0D1431" stop-opacity="0.6"/>
<stop offset="1" stop-color="#283E97" stop-opacity="0.3"/>
</linearGradient>
<linearGradient id="paint50_linear_579_29" x1="160" y1="3780" x2="320" y2="3780" gradientUnits="userSpaceOnUse">
<stop stop-color="#0D1431" stop-opacity="0.6"/>
<stop offset="1" stop-color="#283E97" stop-opacity="0.3"/>
</linearGradient>
<linearGradient id="paint51_linear_579_29" x1="1760" y1="3780" x2="1600" y2="3780" gradientUnits="userSpaceOnUse">
<stop stop-color="#0D1431" stop-opacity="0.6"/>
<stop offset="1" stop-color="#283E97" stop-opacity="0.3"/>
</linearGradient>
<linearGradient id="paint52_linear_579_29" x1="320" y1="3780" x2="480" y2="3780" gradientUnits="userSpaceOnUse">
<stop stop-color="#0D1431" stop-opacity="0.6"/>
<stop offset="1" stop-color="#283E97" stop-opacity="0.3"/>
</linearGradient>
<linearGradient id="paint53_linear_579_29" x1="1600" y1="3780" x2="1440" y2="3780" gradientUnits="userSpaceOnUse">
<stop stop-color="#0D1431" stop-opacity="0.6"/>
<stop offset="1" stop-color="#283E97" stop-opacity="0.3"/>
</linearGradient>
<linearGradient id="paint54_linear_579_29" x1="480" y1="3780" x2="640" y2="3780" gradientUnits="userSpaceOnUse">
<stop stop-color="#0D1431" stop-opacity="0.6"/>
<stop offset="1" stop-color="#283E97" stop-opacity="0.3"/>
</linearGradient>
<linearGradient id="paint55_linear_579_29" x1="1440" y1="3780" x2="1280" y2="3780" gradientUnits="userSpaceOnUse">
<stop stop-color="#0D1431" stop-opacity="0.6"/>
<stop offset="1" stop-color="#283E97" stop-opacity="0.3"/>
</linearGradient>
<linearGradient id="paint56_linear_579_29" x1="640" y1="3780" x2="800" y2="3780" gradientUnits="userSpaceOnUse">
<stop stop-color="#0D1431" stop-opacity="0.6"/>
<stop offset="1" stop-color="#283E97" stop-opacity="0.3"/>
</linearGradient>
<linearGradient id="paint57_linear_579_29" x1="1280" y1="3780" x2="1120" y2="3780" gradientUnits="userSpaceOnUse">
<stop stop-color="#0D1431" stop-opacity="0.6"/>
<stop offset="1" stop-color="#283E97" stop-opacity="0.3"/>
</linearGradient>
<linearGradient id="paint58_linear_579_29" x1="800" y1="3780" x2="960" y2="3780" gradientUnits="userSpaceOnUse">
<stop stop-color="#0D1431" stop-opacity="0.6"/>
<stop offset="1" stop-color="#283E97" stop-opacity="0.3"/>
</linearGradient>
<linearGradient id="paint59_linear_579_29" x1="1120" y1="3780" x2="960" y2="3780" gradientUnits="userSpaceOnUse">
<stop stop-color="#0D1431" stop-opacity="0.6"/>
<stop offset="1" stop-color="#283E97" stop-opacity="0.3"/>
</linearGradient>
<linearGradient id="paint60_linear_579_29" x1="0" y1="6696" x2="160" y2="6696" gradientUnits="userSpaceOnUse">
<stop stop-color="#0D1431" stop-opacity="0.6"/>
<stop offset="1" stop-color="#283E97" stop-opacity="0.3"/>
</linearGradient>
<linearGradient id="paint61_linear_579_29" x1="1920" y1="6696" x2="1760" y2="6696" gradientUnits="userSpaceOnUse">
<stop stop-color="#0D1431" stop-opacity="0.6"/>
<stop offset="1" stop-color="#283E97" stop-opacity="0.3"/>
</linearGradient>
<linearGradient id="paint62_linear_579_29" x1="160" y1="6696" x2="320" y2="6696" gradientUnits="userSpaceOnUse">
<stop stop-color="#0D1431" stop-opacity="0.6"/>
<stop offset="1" stop-color="#283E97" stop-opacity="0.3"/>
</linearGradient>
<linearGradient id="paint63_linear_579_29" x1="1760" y1="6696" x2="1600" y2="6696" gradientUnits="userSpaceOnUse">
<stop stop-color="#0D1431" stop-opacity="0.6"/>
<stop offset="1" stop-color="#283E97" stop-opacity="0.3"/>
</linearGradient>
<linearGradient id="paint64_linear_579_29" x1="320" y1="6696" x2="480" y2="6696" gradientUnits="userSpaceOnUse">
<stop stop-color="#0D1431" stop-opacity="0.6"/>
<stop offset="1" stop-color="#283E97" stop-opacity="0.3"/>
</linearGradient>
<linearGradient id="paint65_linear_579_29" x1="1600" y1="6696" x2="1440" y2="6696" gradientUnits="userSpaceOnUse">
<stop stop-color="#0D1431" stop-opacity="0.6"/>
<stop offset="1" stop-color="#283E97" stop-opacity="0.3"/>
</linearGradient>
<linearGradient id="paint66_linear_579_29" x1="480" y1="6696" x2="640" y2="6696" gradientUnits="userSpaceOnUse">
<stop stop-color="#0D1431" stop-opacity="0.6"/>
<stop offset="1" stop-color="#283E97" stop-opacity="0.3"/>
</linearGradient>
<linearGradient id="paint67_linear_579_29" x1="1440" y1="6696" x2="1280" y2="6696" gradientUnits="userSpaceOnUse">
<stop stop-color="#0D1431" stop-opacity="0.6"/>
<stop offset="1" stop-color="#283E97" stop-opacity="0.3"/>
</linearGradient>
<linearGradient id="paint68_linear_579_29" x1="640" y1="6696" x2="800" y2="6696" gradientUnits="userSpaceOnUse">
<stop stop-color="#0D1431" stop-opacity="0.6"/>
<stop offset="1" stop-color="#283E97" stop-opacity="0.3"/>
</linearGradient>
<linearGradient id="paint69_linear_579_29" x1="1280" y1="6696" x2="1120" y2="6696" gradientUnits="userSpaceOnUse">
<stop stop-color="#0D1431" stop-opacity="0.6"/>
<stop offset="1" stop-color="#283E97" stop-opacity="0.3"/>
</linearGradient>
<linearGradient id="paint70_linear_579_29" x1="800" y1="6696" x2="960" y2="6696" gradientUnits="userSpaceOnUse">
<stop stop-color="#0D1431" stop-opacity="0.6"/>
<stop offset="1" stop-color="#283E97" stop-opacity="0.3"/>
</linearGradient>
<linearGradient id="paint71_linear_579_29" x1="1120" y1="6696" x2="960" y2="6696" gradientUnits="userSpaceOnUse">
<stop stop-color="#0D1431" stop-opacity="0.6"/>
<stop offset="1" stop-color="#283E97" stop-opacity="0.3"/>
</linearGradient>
<linearGradient id="paint72_linear_579_29" x1="0" y1="5112" x2="160" y2="5112" gradientUnits="userSpaceOnUse">
<stop stop-color="#0D1431" stop-opacity="0.6"/>
<stop offset="1" stop-color="#283E97" stop-opacity="0.3"/>
</linearGradient>
<linearGradient id="paint73_linear_579_29" x1="1920" y1="5112" x2="1760" y2="5112" gradientUnits="userSpaceOnUse">
<stop stop-color="#0D1431" stop-opacity="0.6"/>
<stop offset="1" stop-color="#283E97" stop-opacity="0.3"/>
</linearGradient>
<linearGradient id="paint74_linear_579_29" x1="160" y1="5112" x2="320" y2="5112" gradientUnits="userSpaceOnUse">
<stop stop-color="#0D1431" stop-opacity="0.6"/>
<stop offset="1" stop-color="#283E97" stop-opacity="0.3"/>
</linearGradient>
<linearGradient id="paint75_linear_579_29" x1="1760" y1="5112" x2="1600" y2="5112" gradientUnits="userSpaceOnUse">
<stop stop-color="#0D1431" stop-opacity="0.6"/>
<stop offset="1" stop-color="#283E97" stop-opacity="0.3"/>
</linearGradient>
<linearGradient id="paint76_linear_579_29" x1="320" y1="5112" x2="480" y2="5112" gradientUnits="userSpaceOnUse">
<stop stop-color="#0D1431" stop-opacity="0.6"/>
<stop offset="1" stop-color="#283E97" stop-opacity="0.3"/>
</linearGradient>
<linearGradient id="paint77_linear_579_29" x1="1600" y1="5112" x2="1440" y2="5112" gradientUnits="userSpaceOnUse">
<stop stop-color="#0D1431" stop-opacity="0.6"/>
<stop offset="1" stop-color="#283E97" stop-opacity="0.3"/>
</linearGradient>
<linearGradient id="paint78_linear_579_29" x1="480" y1="5112" x2="640" y2="5112" gradientUnits="userSpaceOnUse">
<stop stop-color="#0D1431" stop-opacity="0.6"/>
<stop offset="1" stop-color="#283E97" stop-opacity="0.3"/>
</linearGradient>
<linearGradient id="paint79_linear_579_29" x1="1440" y1="5112" x2="1280" y2="5112" gradientUnits="userSpaceOnUse">
<stop stop-color="#0D1431" stop-opacity="0.6"/>
<stop offset="1" stop-color="#283E97" stop-opacity="0.3"/>
</linearGradient>
<linearGradient id="paint80_linear_579_29" x1="640" y1="5112" x2="800" y2="5112" gradientUnits="userSpaceOnUse">
<stop stop-color="#0D1431" stop-opacity="0.6"/>
<stop offset="1" stop-color="#283E97" stop-opacity="0.3"/>
</linearGradient>
<linearGradient id="paint81_linear_579_29" x1="1280" y1="5112" x2="1120" y2="5112" gradientUnits="userSpaceOnUse">
<stop stop-color="#0D1431" stop-opacity="0.6"/>
<stop offset="1" stop-color="#283E97" stop-opacity="0.3"/>
</linearGradient>
<linearGradient id="paint82_linear_579_29" x1="800" y1="5112" x2="960" y2="5112" gradientUnits="userSpaceOnUse">
<stop stop-color="#0D1431" stop-opacity="0.6"/>
<stop offset="1" stop-color="#283E97" stop-opacity="0.3"/>
</linearGradient>
<linearGradient id="paint83_linear_579_29" x1="1120" y1="5112" x2="960" y2="5112" gradientUnits="userSpaceOnUse">
<stop stop-color="#0D1431" stop-opacity="0.6"/>
<stop offset="1" stop-color="#283E97" stop-opacity="0.3"/>
</linearGradient>
<clipPath id="clip0_579_29">
<rect width="1920" height="8800" fill="white"/>
</clipPath>
<clipPath id="clip1_579_29">
<rect width="1920" height="1080" fill="white"/>
</clipPath>
<clipPath id="clip2_579_29">
<rect width="1920" height="1080" fill="white" transform="translate(0 2160)"/>
</clipPath>
<clipPath id="clip3_579_29">
<rect width="1920" height="1584" fill="white" transform="translate(0 7488)"/>
</clipPath>
<clipPath id="clip4_579_29">
<rect width="1920" height="1080" fill="white" transform="translate(0 1080)"/>
</clipPath>
<clipPath id="clip5_579_29">
<rect width="1920" height="1080" fill="white" transform="translate(0 3240)"/>
</clipPath>
<clipPath id="clip6_579_29">
<rect width="1920" height="1584" fill="white" transform="translate(0 5904)"/>
</clipPath>
<clipPath id="clip7_579_29">
<rect width="1920" height="1584" fill="white" transform="translate(0 4320)"/>
</clipPath>
</defs>
</svg>
